<svg width="885" height="204" xmlns="http://www.w3.org/2000/svg" xmlns:xlink="http://www.w3.org/1999/xlink" overflow="hidden"><defs><filter id="fx0" x="-10%" y="-10%" width="120%" height="120%" filterUnits="userSpaceOnUse" primitiveUnits="userSpaceOnUse"><feComponentTransfer color-interpolation-filters="sRGB"><feFuncR type="discrete" tableValues="0 0"/><feFuncG type="discrete" tableValues="0 0"/><feFuncB type="discrete" tableValues="0 0"/><feFuncA type="linear" slope="0.4" intercept="0"/></feComponentTransfer><feGaussianBlur stdDeviation="0.454432 0.454432"/></filter><filter id="fx1" x="-10%" y="-10%" width="120%" height="120%" filterUnits="userSpaceOnUse" primitiveUnits="userSpaceOnUse"><feComponentTransfer color-interpolation-filters="sRGB"><feFuncR type="discrete" tableValues="0 0"/><feFuncG type="discrete" tableValues="0 0"/><feFuncB type="discrete" tableValues="0 0"/><feFuncA type="linear" slope="0.4" intercept="0"/></feComponentTransfer><feGaussianBlur stdDeviation="0.454432 0.454432"/></filter><clipPath id="clip2"><rect x="19" y="289" width="885" height="204"/></clipPath><clipPath id="clip3"><rect x="11" y="10" width="147" height="13"/></clipPath><clipPath id="clip4"><rect x="0" y="0" width="170" height="36"/></clipPath><clipPath id="clip5"><rect x="12" y="11" width="21" height="12"/></clipPath><clipPath id="clip6"><rect x="0" y="0" width="43" height="37"/></clipPath></defs><g clip-path="url(#clip2)" transform="translate(-19 -289)"><rect x="479" y="352" width="184" height="58" stroke="#117EA7" stroke-width="2.33333" stroke-linecap="round" stroke-linejoin="round" stroke-miterlimit="10" fill="#FFFFFF"/><g clip-path="url(#clip3)" filter="url(#fx0)" transform="translate(487 366)"><g clip-path="url(#clip4)"><path d="M8.44482 0 7.13219 0 5.28866-4.32861 2.42432-4.32861 2.42432 0 1.25244 0 1.25244-9.99756 5.19287-9.99756C6.26221-9.99756 7.05444-9.70581 7.56958-9.12231 8.08472-8.53882 8.34229-7.90039 8.34229-7.20703 8.34229-6.6748 8.19824-6.16455 7.91016-5.67627 7.62207-5.18799 7.146-4.83887 6.48193-4.62891ZM2.42432-5.34668 5.03906-5.34668C5.72754-5.34668 6.24145-5.52856 6.58081-5.89233 6.92017-6.2561 7.08984-6.70166 7.08984-7.229 7.08984-7.75635 6.9104-8.1665 6.55151-8.45947 6.19263-8.75244 5.73975-8.89893 5.19287-8.89893L2.42432-8.89893ZM15.936 0 14.8008 0C14.7568-0.234375 14.7129-0.678711 14.6689-1.33301 14.1611-0.307617 13.2969 0.205078 12.0762 0.205078 11.2461 0.205078 10.6089-0.0149918 10.1646-0.455132 9.72021-0.895271 9.49805-1.42342 9.49805-2.03957 9.49805-2.78778 9.81543-3.40273 10.4502-3.88441 11.085-4.36609 12.1641-4.60693 13.6875-4.60693 13.8926-4.60693 14.2197-4.59717 14.6689-4.57764 14.6689-5.16357 14.6238-5.58716 14.5334-5.84839 14.4431-6.10962 14.2515-6.31836 13.9585-6.47461 13.6655-6.63086 13.2798-6.70898 12.8013-6.70898 11.6343-6.70898 10.9556-6.26465 10.7651-5.37598L9.70312-5.55908C9.96191-6.92139 11.0508-7.60254 12.9697-7.60254 13.9902-7.60254 14.7141-7.37671 15.1414-6.92505 15.5686-6.47339 15.7822-5.69092 15.7822-4.57764L15.7822-1.43555C15.7822-0.913086 15.8335-0.43457 15.936 0ZM14.6689-3.69873C14.2002-3.72803 13.8437-3.74268 13.5996-3.74268 12.6914-3.74268 11.9858-3.59341 11.4829-3.29487 10.98-2.99633 10.7285-2.56073 10.7285-1.98807 10.7285-1.62582 10.864-1.31744 11.135-1.06293 11.406-0.808411 11.7979-0.681152 12.3105-0.681152 13.0039-0.681152 13.574-0.933228 14.0208-1.43738 14.4675-1.94153 14.6909-2.5338 14.6909-3.21419 14.6909-3.35121 14.6836-3.51273 14.6689-3.69873ZM23.8133 0 22.7367 0 22.7367-4.75342C22.7367-5.43701 22.5877-5.91797 22.2899-6.19629 21.992-6.47461 21.6307-6.61377 21.2059-6.61377 20.62-6.61377 20.128-6.37939 19.7301-5.91064 19.3321-5.44189 19.1331-4.82422 19.1331-4.05762L19.1331 0 17.9832 0 17.9832-7.39746 19.0526-7.39746 19.0526-6.03516C19.6532-7.08008 20.432-7.60254 21.389-7.60254 21.9408-7.60254 22.4107-7.45972 22.7989-7.17407 23.1871-6.88843 23.4532-6.56738 23.5972-6.21094 23.7413-5.85449 23.8133-5.20996 23.8133-4.27734ZM31.762-9.99756 31.762 0 30.722 0 30.722-1.26709C30.2037-0.285645 29.4239 0.205078 28.3824 0.205078 27.5169 0.205078 26.8055-0.157814 26.2481-0.883598 25.6906-1.60938 25.4119-2.52697 25.4119-3.63636 25.4119-4.77024 25.6878-5.71474 26.2396-6.46986 26.7913-7.22498 27.5238-7.60254 28.4368-7.60254 29.3255-7.60254 30.0506-7.19727 30.6121-6.38672L30.6121-9.99756ZM30.6121-4.54102C30.6121-5.19043 30.4144-5.71045 30.0189-6.10107 29.6234-6.4917 29.1619-6.68701 28.6346-6.68701 28.0633-6.68701 27.5933-6.4331 27.2247-5.92529 26.856-5.41748 26.6717-4.70459 26.6717-3.78662 26.6717-2.79541 26.8414-2.04102 27.1807-1.52344 27.5201-1.00586 27.9852-0.74707 28.576-0.74707 29.1131-0.74707 29.5868-0.97168 29.9969-1.4209 30.4071-1.87012 30.6121-2.39746 30.6121-3.00293ZM36.4679 0.205078C35.4523 0.205078 34.6601-0.171261 34.0912-0.923939 33.5224-1.67662 33.238-2.61009 33.238-3.72437 33.238-4.90227 33.5578-5.84311 34.1974-6.54688 34.8371-7.25065 35.633-7.60254 36.5851-7.60254 37.6056-7.60254 38.4101-7.23232 38.9985-6.49189 39.5868-5.75146 39.881-4.82651 39.881-3.71704 39.881-2.56363 39.5636-1.62159 38.9289-0.890923 38.2941-0.160255 37.4738 0.205078 36.4679 0.205078ZM36.5558-0.74707C37.1418-0.74707 37.6325-0.98877 38.028-1.47217 38.4235-1.95557 38.6213-2.70752 38.6213-3.72803 38.6213-4.75342 38.4137-5.49683 37.9987-5.95825 37.5837-6.41968 37.0978-6.65039 36.5412-6.65039 35.9699-6.65039 35.4865-6.41724 35.091-5.95093 34.6955-5.48462 34.4977-4.74609 34.4977-3.73535 34.4977-2.66602 34.6955-1.90063 35.091-1.43921 35.4865-0.977783 35.9748-0.74707 36.5558-0.74707ZM51.3929 0 50.2723 0 50.2723-4.59961C50.2723-5.07324 50.2393-5.42847 50.1734-5.66528 50.1075-5.9021 49.9476-6.11938 49.6937-6.31714 49.4398-6.51489 49.1541-6.61377 48.8368-6.61377 48.3973-6.61377 47.9737-6.41235 47.566-6.00952 47.1583-5.60669 46.9544-4.99268 46.9544-4.16748L46.9544 0 45.8411 0 45.8411-4.87061C45.8411-5.52002 45.6861-5.979 45.3761-6.24756 45.066-6.51611 44.7401-6.65039 44.3983-6.65039 43.91-6.65039 43.4852-6.44043 43.1239-6.02051 42.7625-5.60059 42.5819-5.06836 42.5819-4.42383L42.5819 0 41.4832 0 41.4832-7.39746 42.472-7.39746 42.472-5.97656C43.0238-7.06055 43.783-7.60254 44.7498-7.60254 45.2821-7.60254 45.7337-7.4292 46.1048-7.08252 46.4759-6.73584 46.7152-6.31836 46.8226-5.83008 47.3304-7.01172 48.1092-7.60254 49.159-7.60254 49.6619-7.60254 50.1026-7.4585 50.481-7.17041 50.8595-6.88232 51.106-6.55151 51.2208-6.17798 51.3355-5.80444 51.3929-5.27832 51.3929-4.59961ZM58.5049 0 57.2524 0 57.2524-9.99756 63.3755-9.99756 63.3755-8.89893 58.5049-8.89893 58.5049-5.74219 62.5405-5.74219 62.5405-4.73145 58.5049-4.73145ZM67.3013 0.205078C66.2856 0.205078 65.4934-0.171261 64.9246-0.923939 64.3557-1.67662 64.0713-2.61009 64.0713-3.72437 64.0713-4.90227 64.3911-5.84311 65.0308-6.54688 65.6704-7.25065 66.4663-7.60254 67.4185-7.60254 68.439-7.60254 69.2434-7.23232 69.8318-6.49189 70.4202-5.75146 70.7144-4.82651 70.7144-3.71704 70.7144-2.56363 70.397-1.62159 69.7622-0.890923 69.1274-0.160255 68.3071 0.205078 67.3013 0.205078ZM67.3892-0.74707C67.9751-0.74707 68.4658-0.98877 68.8613-1.47217 69.2568-1.95557 69.4546-2.70752 69.4546-3.72803 69.4546-4.75342 69.2471-5.49683 68.832-5.95825 68.417-6.41968 67.9312-6.65039 67.3745-6.65039 66.8032-6.65039 66.3198-6.41724 65.9243-5.95093 65.5288-5.48462 65.3311-4.74609 65.3311-3.73535 65.3311-2.66602 65.5288-1.90063 65.9243-1.43921 66.3198-0.977783 66.8081-0.74707 67.3892-0.74707ZM73.4665 0 72.3166 0 72.3166-7.39746 73.3273-7.39746 73.3273-5.66895C73.6838-6.48437 74.0414-7.01294 74.4003-7.25464 74.7592-7.49634 75.1266-7.61719 75.5026-7.61719 75.6198-7.61719 75.7712-7.60742 75.9567-7.58789L75.9567-6.48926 75.7223-6.48926C75.0876-6.48926 74.5602-6.25244 74.1403-5.77881 73.7204-5.30518 73.4958-4.68262 73.4665-3.91113ZM82.0352-2.20459 83.1045-1.98486C82.9092-1.35284 82.5283-0.829849 81.9619-0.415878 81.3955-0.00190736 80.729 0.205078 79.9624 0.205078 78.9517 0.205078 78.1338-0.150471 77.5088-0.861568 76.8838-1.57267 76.5713-2.50496 76.5713-3.65845 76.5713-4.83627 76.896-5.78808 77.5454-6.51386 78.1948-7.23965 79.0103-7.60254 79.9917-7.60254 80.9585-7.60254 81.7361-7.26807 82.3245-6.59912 82.9128-5.93018 83.2144-4.9292 83.229-3.59619L77.853-3.59619C77.853-2.47803 78.0874-1.72363 78.5562-1.33301 79.0249-0.942383 79.5205-0.74707 80.043-0.74707 80.9854-0.74707 81.6494-1.23291 82.0352-2.20459ZM81.9692-4.45312C81.9595-4.86816 81.8911-5.23682 81.7642-5.55908 81.6372-5.88135 81.4224-6.15601 81.1196-6.38306 80.8169-6.61011 80.4531-6.72363 80.0283-6.72363 79.457-6.72363 78.9724-6.51855 78.5745-6.1084 78.1765-5.69824 77.9531-5.14648 77.9043-4.45312ZM83.8205-1.91895 84.9191-2.146C85.1633-1.21338 85.9347-0.74707 87.2336-0.74707 87.7121-0.74707 88.1174-0.854359 88.4494-1.06894 88.7814-1.28351 88.9474-1.58585 88.9474-1.97594 88.9474-2.5563 88.5249-2.9245 87.6798-3.08052L86.1203-3.37646C85.5099-3.49365 85.0241-3.72314 84.6628-4.06494 84.3014-4.40674 84.1208-4.8584 84.1208-5.41992 84.1208-6.04004 84.3674-6.55884 84.8605-6.97632 85.3537-7.3938 86.0177-7.60254 86.8527-7.60254 88.4592-7.60254 89.4504-6.9751 89.8263-5.72021L88.7717-5.49316C88.4689-6.26465 87.8464-6.65039 86.904-6.65039 86.4352-6.65039 86.0507-6.55407 85.7504-6.36143 85.4501-6.16878 85.3-5.89931 85.3-5.55302 85.3-5.00683 85.6834-4.66301 86.4503-4.52156L87.8927-4.2627C89.4015-3.9888 90.1559-3.25764 90.1559-2.06921 90.1559-1.38935 89.8752-0.84034 89.3136-0.422173 88.7521-0.00400545 88.0051 0.205078 87.0724 0.205078 85.3195 0.205078 84.2355-0.50293 83.8205-1.91895ZM95.0044-0.783691 95.0044 0.124512C94.5991 0.178223 94.2476 0.205078 93.9497 0.205078 92.5191 0.205078 91.8037-0.542793 91.8037-2.03854L91.8037-6.49658 90.4927-6.49658 90.4927-7.39746 91.8037-7.39746 91.855-9.25781 92.9243-9.36035 92.9243-7.39746 94.5796-7.39746 94.5796-6.49658 92.9243-6.49658 92.9243-1.84719C92.9243-1.08448 93.3198-0.703125 94.1108-0.703125 94.3745-0.703125 94.6724-0.72998 95.0044-0.783691ZM109.572 0 108.357 0 108.357-8.73047 105.111 0 104.262 0 100.981-8.73047 100.981 0 99.9191 0 99.9191-9.99756 101.773-9.99756 104.793-2.00146 107.742-9.99756 109.572-9.99756ZM116.535-2.20459 117.604-1.98486C117.409-1.35284 117.028-0.829849 116.462-0.415878 115.896-0.00190736 115.229 0.205078 114.462 0.205078 113.452 0.205078 112.634-0.150471 112.009-0.861568 111.384-1.57267 111.071-2.50496 111.071-3.65845 111.071-4.83627 111.396-5.78808 112.045-6.51386 112.695-7.23965 113.51-7.60254 114.492-7.60254 115.458-7.60254 116.236-7.26807 116.824-6.59912 117.413-5.93018 117.714-4.9292 117.729-3.59619L112.353-3.59619C112.353-2.47803 112.587-1.72363 113.056-1.33301 113.525-0.942383 114.021-0.74707 114.543-0.74707 115.485-0.74707 116.149-1.23291 116.535-2.20459ZM116.469-4.45312C116.459-4.86816 116.391-5.23682 116.264-5.55908 116.137-5.88135 115.922-6.15601 115.62-6.38306 115.317-6.61011 114.953-6.72363 114.528-6.72363 113.957-6.72363 113.472-6.51855 113.074-6.1084 112.677-5.69824 112.453-5.14648 112.404-4.45312ZM122.671-0.783691 122.671 0.124512C122.266 0.178223 121.914 0.205078 121.616 0.205078 120.186 0.205078 119.47-0.542793 119.47-2.03854L119.47-6.49658 118.159-6.49658 118.159-7.39746 119.47-7.39746 119.522-9.25781 120.591-9.36035 120.591-7.39746 122.246-7.39746 122.246-6.49658 120.591-6.49658 120.591-1.84719C120.591-1.08448 120.986-0.703125 121.778-0.703125 122.041-0.703125 122.339-0.72998 122.671-0.783691ZM129.617 0 128.467 0 128.467-4.48975C128.467-5.01709 128.434-5.4126 128.369-5.67627 128.303-5.93994 128.146-6.16821 127.9-6.36108 127.653-6.55395 127.369-6.65039 127.047-6.65039 126.456-6.65039 125.961-6.40869 125.563-5.92529 125.165-5.44189 124.966-4.79492 124.966-3.98438L124.966 0 123.817 0 123.817-9.99756 124.966-9.99756 124.966-6.03516C125.489-7.08008 126.236-7.60254 127.208-7.60254 127.642-7.60254 128.029-7.51709 128.369-7.34619 128.708-7.17529 128.968-6.95068 129.149-6.67236 129.329-6.39404 129.453-6.11938 129.518-5.84839 129.584-5.57739 129.617-5.12451 129.617-4.48975ZM134.468 0.205078C133.452 0.205078 132.66-0.171261 132.091-0.923939 131.522-1.67662 131.238-2.61009 131.238-3.72437 131.238-4.90227 131.558-5.84311 132.197-6.54688 132.837-7.25065 133.633-7.60254 134.585-7.60254 135.606-7.60254 136.41-7.23232 136.998-6.49189 137.587-5.75146 137.881-4.82651 137.881-3.71704 137.881-2.56363 137.564-1.62159 136.929-0.890923 136.294-0.160255 135.474 0.205078 134.468 0.205078ZM134.556-0.74707C135.142-0.74707 135.632-0.98877 136.028-1.47217 136.423-1.95557 136.621-2.70752 136.621-3.72803 136.621-4.75342 136.414-5.49683 135.999-5.95825 135.584-6.41968 135.098-6.65039 134.541-6.65039 133.97-6.65039 133.486-6.41724 133.091-5.95093 132.695-5.48462 132.498-4.74609 132.498-3.73535 132.498-2.66602 132.695-1.90063 133.091-1.43921 133.486-0.977783 133.975-0.74707 134.556-0.74707ZM145.262-9.99756 145.262 0 144.222 0 144.222-1.26709C143.704-0.285645 142.924 0.205078 141.882 0.205078 141.017 0.205078 140.305-0.157814 139.748-0.883598 139.191-1.60938 138.912-2.52697 138.912-3.63636 138.912-4.77024 139.188-5.71474 139.74-6.46986 140.291-7.22498 141.024-7.60254 141.937-7.60254 142.826-7.60254 143.551-7.19727 144.112-6.38672L144.112-9.99756ZM144.112-4.54102C144.112-5.19043 143.914-5.71045 143.519-6.10107 143.123-6.4917 142.662-6.68701 142.135-6.68701 141.563-6.68701 141.093-6.4331 140.725-5.92529 140.356-5.41748 140.172-4.70459 140.172-3.78662 140.172-2.79541 140.341-2.04102 140.681-1.52344 141.02-1.00586 141.485-0.74707 142.076-0.74707 142.613-0.74707 143.087-0.97168 143.497-1.4209 143.907-1.87012 144.112-2.39746 144.112-3.00293Z" transform="translate(11.5488 21)"/></g></g><path d="M8.44482 0 7.13219 0 5.28866-4.32861 2.42432-4.32861 2.42432 0 1.25244 0 1.25244-9.99756 5.19287-9.99756C6.26221-9.99756 7.05444-9.70581 7.56958-9.12231 8.08472-8.53882 8.34229-7.90039 8.34229-7.20703 8.34229-6.6748 8.19824-6.16455 7.91016-5.67627 7.62207-5.18799 7.146-4.83887 6.48193-4.62891ZM2.42432-5.34668 5.03906-5.34668C5.72754-5.34668 6.24145-5.52856 6.58081-5.89233 6.92017-6.2561 7.08984-6.70166 7.08984-7.229 7.08984-7.75635 6.9104-8.1665 6.55151-8.45947 6.19263-8.75244 5.73975-8.89893 5.19287-8.89893L2.42432-8.89893ZM15.936 0 14.8008 0C14.7568-0.234375 14.7129-0.678711 14.6689-1.33301 14.1611-0.307617 13.2969 0.205078 12.0762 0.205078 11.2461 0.205078 10.6089-0.0149918 10.1646-0.455132 9.72021-0.895271 9.49805-1.42342 9.49805-2.03957 9.49805-2.78778 9.81543-3.40273 10.4502-3.88441 11.085-4.36609 12.1641-4.60693 13.6875-4.60693 13.8926-4.60693 14.2197-4.59717 14.6689-4.57764 14.6689-5.16357 14.6238-5.58716 14.5334-5.84839 14.4431-6.10962 14.2515-6.31836 13.9585-6.47461 13.6655-6.63086 13.2798-6.70898 12.8013-6.70898 11.6343-6.70898 10.9556-6.26465 10.7651-5.37598L9.70312-5.55908C9.96191-6.92139 11.0508-7.60254 12.9697-7.60254 13.9902-7.60254 14.7141-7.37671 15.1414-6.92505 15.5686-6.47339 15.7822-5.69092 15.7822-4.57764L15.7822-1.43555C15.7822-0.913086 15.8335-0.43457 15.936 0ZM14.6689-3.69873C14.2002-3.72803 13.8437-3.74268 13.5996-3.74268 12.6914-3.74268 11.9858-3.59341 11.4829-3.29487 10.98-2.99633 10.7285-2.56073 10.7285-1.98807 10.7285-1.62582 10.864-1.31744 11.135-1.06293 11.406-0.808411 11.7979-0.681152 12.3105-0.681152 13.0039-0.681152 13.574-0.933228 14.0208-1.43738 14.4675-1.94153 14.6909-2.5338 14.6909-3.21419 14.6909-3.35121 14.6836-3.51273 14.6689-3.69873ZM23.8133 0 22.7367 0 22.7367-4.75342C22.7367-5.43701 22.5877-5.91797 22.2899-6.19629 21.992-6.47461 21.6307-6.61377 21.2059-6.61377 20.62-6.61377 20.128-6.37939 19.7301-5.91064 19.3321-5.44189 19.1331-4.82422 19.1331-4.05762L19.1331 0 17.9832 0 17.9832-7.39746 19.0526-7.39746 19.0526-6.03516C19.6532-7.08008 20.432-7.60254 21.389-7.60254 21.9408-7.60254 22.4107-7.45972 22.7989-7.17407 23.1871-6.88843 23.4532-6.56738 23.5972-6.21094 23.7413-5.85449 23.8133-5.20996 23.8133-4.27734ZM31.762-9.99756 31.762 0 30.722 0 30.722-1.26709C30.2037-0.285645 29.4239 0.205078 28.3824 0.205078 27.5169 0.205078 26.8055-0.157814 26.2481-0.883598 25.6906-1.60938 25.4119-2.52697 25.4119-3.63636 25.4119-4.77024 25.6878-5.71474 26.2396-6.46986 26.7913-7.22498 27.5238-7.60254 28.4368-7.60254 29.3255-7.60254 30.0506-7.19727 30.6121-6.38672L30.6121-9.99756ZM30.6121-4.54102C30.6121-5.19043 30.4144-5.71045 30.0189-6.10107 29.6234-6.4917 29.1619-6.68701 28.6346-6.68701 28.0633-6.68701 27.5933-6.4331 27.2247-5.92529 26.856-5.41748 26.6717-4.70459 26.6717-3.78662 26.6717-2.79541 26.8414-2.04102 27.1807-1.52344 27.5201-1.00586 27.9852-0.74707 28.576-0.74707 29.1131-0.74707 29.5868-0.97168 29.9969-1.4209 30.4071-1.87012 30.6121-2.39746 30.6121-3.00293ZM36.4679 0.205078C35.4523 0.205078 34.6601-0.171261 34.0912-0.923939 33.5224-1.67662 33.238-2.61009 33.238-3.72437 33.238-4.90227 33.5578-5.84311 34.1974-6.54688 34.8371-7.25065 35.633-7.60254 36.5851-7.60254 37.6056-7.60254 38.4101-7.23232 38.9985-6.49189 39.5868-5.75146 39.881-4.82651 39.881-3.71704 39.881-2.56363 39.5636-1.62159 38.9289-0.890923 38.2941-0.160255 37.4738 0.205078 36.4679 0.205078ZM36.5558-0.74707C37.1418-0.74707 37.6325-0.98877 38.028-1.47217 38.4235-1.95557 38.6213-2.70752 38.6213-3.72803 38.6213-4.75342 38.4137-5.49683 37.9987-5.95825 37.5837-6.41968 37.0978-6.65039 36.5412-6.65039 35.9699-6.65039 35.4865-6.41724 35.091-5.95093 34.6955-5.48462 34.4977-4.74609 34.4977-3.73535 34.4977-2.66602 34.6955-1.90063 35.091-1.43921 35.4865-0.977783 35.9748-0.74707 36.5558-0.74707ZM51.3929 0 50.2723 0 50.2723-4.59961C50.2723-5.07324 50.2393-5.42847 50.1734-5.66528 50.1075-5.9021 49.9476-6.11938 49.6937-6.31714 49.4398-6.51489 49.1541-6.61377 48.8368-6.61377 48.3973-6.61377 47.9737-6.41235 47.566-6.00952 47.1583-5.60669 46.9544-4.99268 46.9544-4.16748L46.9544 0 45.8411 0 45.8411-4.87061C45.8411-5.52002 45.6861-5.979 45.3761-6.24756 45.066-6.51611 44.7401-6.65039 44.3983-6.65039 43.91-6.65039 43.4852-6.44043 43.1239-6.02051 42.7625-5.60059 42.5819-5.06836 42.5819-4.42383L42.5819 0 41.4832 0 41.4832-7.39746 42.472-7.39746 42.472-5.97656C43.0238-7.06055 43.783-7.60254 44.7498-7.60254 45.2821-7.60254 45.7337-7.4292 46.1048-7.08252 46.4759-6.73584 46.7152-6.31836 46.8226-5.83008 47.3304-7.01172 48.1092-7.60254 49.159-7.60254 49.6619-7.60254 50.1026-7.4585 50.481-7.17041 50.8595-6.88232 51.106-6.55151 51.2208-6.17798 51.3355-5.80444 51.3929-5.27832 51.3929-4.59961ZM58.5049 0 57.2524 0 57.2524-9.99756 63.3755-9.99756 63.3755-8.89893 58.5049-8.89893 58.5049-5.74219 62.5405-5.74219 62.5405-4.73145 58.5049-4.73145ZM67.3013 0.205078C66.2856 0.205078 65.4934-0.171261 64.9246-0.923939 64.3557-1.67662 64.0713-2.61009 64.0713-3.72437 64.0713-4.90227 64.3911-5.84311 65.0308-6.54688 65.6704-7.25065 66.4663-7.60254 67.4185-7.60254 68.439-7.60254 69.2434-7.23232 69.8318-6.49189 70.4202-5.75146 70.7144-4.82651 70.7144-3.71704 70.7144-2.56363 70.397-1.62159 69.7622-0.890923 69.1274-0.160255 68.3071 0.205078 67.3013 0.205078ZM67.3892-0.74707C67.9751-0.74707 68.4658-0.98877 68.8613-1.47217 69.2568-1.95557 69.4546-2.70752 69.4546-3.72803 69.4546-4.75342 69.2471-5.49683 68.832-5.95825 68.417-6.41968 67.9312-6.65039 67.3745-6.65039 66.8032-6.65039 66.3198-6.41724 65.9243-5.95093 65.5288-5.48462 65.3311-4.74609 65.3311-3.73535 65.3311-2.66602 65.5288-1.90063 65.9243-1.43921 66.3198-0.977783 66.8081-0.74707 67.3892-0.74707ZM73.4665 0 72.3166 0 72.3166-7.39746 73.3273-7.39746 73.3273-5.66895C73.6838-6.48437 74.0414-7.01294 74.4003-7.25464 74.7592-7.49634 75.1266-7.61719 75.5026-7.61719 75.6198-7.61719 75.7712-7.60742 75.9567-7.58789L75.9567-6.48926 75.7223-6.48926C75.0876-6.48926 74.5602-6.25244 74.1403-5.77881 73.7204-5.30518 73.4958-4.68262 73.4665-3.91113ZM82.0352-2.20459 83.1045-1.98486C82.9092-1.35284 82.5283-0.829849 81.9619-0.415878 81.3955-0.00190736 80.729 0.205078 79.9624 0.205078 78.9517 0.205078 78.1338-0.150471 77.5088-0.861568 76.8838-1.57267 76.5713-2.50496 76.5713-3.65845 76.5713-4.83627 76.896-5.78808 77.5454-6.51386 78.1948-7.23965 79.0103-7.60254 79.9917-7.60254 80.9585-7.60254 81.7361-7.26807 82.3245-6.59912 82.9128-5.93018 83.2144-4.9292 83.229-3.59619L77.853-3.59619C77.853-2.47803 78.0874-1.72363 78.5562-1.33301 79.0249-0.942383 79.5205-0.74707 80.043-0.74707 80.9854-0.74707 81.6494-1.23291 82.0352-2.20459ZM81.9692-4.45312C81.9595-4.86816 81.8911-5.23682 81.7642-5.55908 81.6372-5.88135 81.4224-6.15601 81.1196-6.38306 80.8169-6.61011 80.4531-6.72363 80.0283-6.72363 79.457-6.72363 78.9724-6.51855 78.5745-6.1084 78.1765-5.69824 77.9531-5.14648 77.9043-4.45312ZM83.8205-1.91895 84.9191-2.146C85.1633-1.21338 85.9347-0.74707 87.2336-0.74707 87.7121-0.74707 88.1174-0.854359 88.4494-1.06894 88.7814-1.28351 88.9474-1.58585 88.9474-1.97594 88.9474-2.5563 88.5249-2.9245 87.6798-3.08052L86.1203-3.37646C85.5099-3.49365 85.0241-3.72314 84.6628-4.06494 84.3014-4.40674 84.1208-4.8584 84.1208-5.41992 84.1208-6.04004 84.3674-6.55884 84.8605-6.97632 85.3537-7.3938 86.0177-7.60254 86.8527-7.60254 88.4592-7.60254 89.4504-6.9751 89.8263-5.72021L88.7717-5.49316C88.4689-6.26465 87.8464-6.65039 86.904-6.65039 86.4352-6.65039 86.0507-6.55407 85.7504-6.36143 85.4501-6.16878 85.3-5.89931 85.3-5.55302 85.3-5.00683 85.6834-4.66301 86.4503-4.52156L87.8927-4.2627C89.4015-3.9888 90.1559-3.25764 90.1559-2.06921 90.1559-1.38935 89.8752-0.84034 89.3136-0.422173 88.7521-0.00400545 88.0051 0.205078 87.0724 0.205078 85.3195 0.205078 84.2355-0.50293 83.8205-1.91895ZM95.0044-0.783691 95.0044 0.124512C94.5991 0.178223 94.2476 0.205078 93.9497 0.205078 92.5191 0.205078 91.8037-0.542793 91.8037-2.03854L91.8037-6.49658 90.4927-6.49658 90.4927-7.39746 91.8037-7.39746 91.855-9.25781 92.9243-9.36035 92.9243-7.39746 94.5796-7.39746 94.5796-6.49658 92.9243-6.49658 92.9243-1.84719C92.9243-1.08448 93.3198-0.703125 94.1108-0.703125 94.3745-0.703125 94.6724-0.72998 95.0044-0.783691ZM109.572 0 108.357 0 108.357-8.73047 105.111 0 104.262 0 100.981-8.73047 100.981 0 99.9191 0 99.9191-9.99756 101.773-9.99756 104.793-2.00146 107.742-9.99756 109.572-9.99756ZM116.535-2.20459 117.604-1.98486C117.409-1.35284 117.028-0.829849 116.462-0.415878 115.896-0.00190736 115.229 0.205078 114.462 0.205078 113.452 0.205078 112.634-0.150471 112.009-0.861568 111.384-1.57267 111.071-2.50496 111.071-3.65845 111.071-4.83627 111.396-5.78808 112.045-6.51386 112.695-7.23965 113.51-7.60254 114.492-7.60254 115.458-7.60254 116.236-7.26807 116.824-6.59912 117.413-5.93018 117.714-4.9292 117.729-3.59619L112.353-3.59619C112.353-2.47803 112.587-1.72363 113.056-1.33301 113.525-0.942383 114.021-0.74707 114.543-0.74707 115.485-0.74707 116.149-1.23291 116.535-2.20459ZM116.469-4.45312C116.459-4.86816 116.391-5.23682 116.264-5.55908 116.137-5.88135 115.922-6.15601 115.62-6.38306 115.317-6.61011 114.953-6.72363 114.528-6.72363 113.957-6.72363 113.472-6.51855 113.074-6.1084 112.677-5.69824 112.453-5.14648 112.404-4.45312ZM122.671-0.783691 122.671 0.124512C122.266 0.178223 121.914 0.205078 121.616 0.205078 120.186 0.205078 119.47-0.542793 119.47-2.03854L119.47-6.49658 118.159-6.49658 118.159-7.39746 119.47-7.39746 119.522-9.25781 120.591-9.36035 120.591-7.39746 122.246-7.39746 122.246-6.49658 120.591-6.49658 120.591-1.84719C120.591-1.08448 120.986-0.703125 121.778-0.703125 122.041-0.703125 122.339-0.72998 122.671-0.783691ZM129.617 0 128.467 0 128.467-4.48975C128.467-5.01709 128.434-5.4126 128.369-5.67627 128.303-5.93994 128.146-6.16821 127.9-6.36108 127.653-6.55395 127.369-6.65039 127.047-6.65039 126.456-6.65039 125.961-6.40869 125.563-5.92529 125.165-5.44189 124.966-4.79492 124.966-3.98438L124.966 0 123.817 0 123.817-9.99756 124.966-9.99756 124.966-6.03516C125.489-7.08008 126.236-7.60254 127.208-7.60254 127.642-7.60254 128.029-7.51709 128.369-7.34619 128.708-7.17529 128.968-6.95068 129.149-6.67236 129.329-6.39404 129.453-6.11938 129.518-5.84839 129.584-5.57739 129.617-5.12451 129.617-4.48975ZM134.468 0.205078C133.452 0.205078 132.66-0.171261 132.091-0.923939 131.522-1.67662 131.238-2.61009 131.238-3.72437 131.238-4.90227 131.558-5.84311 132.197-6.54688 132.837-7.25065 133.633-7.60254 134.585-7.60254 135.606-7.60254 136.41-7.23232 136.998-6.49189 137.587-5.75146 137.881-4.82651 137.881-3.71704 137.881-2.56363 137.564-1.62159 136.929-0.890923 136.294-0.160255 135.474 0.205078 134.468 0.205078ZM134.556-0.74707C135.142-0.74707 135.632-0.98877 136.028-1.47217 136.423-1.95557 136.621-2.70752 136.621-3.72803 136.621-4.75342 136.414-5.49683 135.999-5.95825 135.584-6.41968 135.098-6.65039 134.541-6.65039 133.97-6.65039 133.486-6.41724 133.091-5.95093 132.695-5.48462 132.498-4.74609 132.498-3.73535 132.498-2.66602 132.695-1.90063 133.091-1.43921 133.486-0.977783 133.975-0.74707 134.556-0.74707ZM145.262-9.99756 145.262 0 144.222 0 144.222-1.26709C143.704-0.285645 142.924 0.205078 141.882 0.205078 141.017 0.205078 140.305-0.157814 139.748-0.883598 139.191-1.60938 138.912-2.52697 138.912-3.63636 138.912-4.77024 139.188-5.71474 139.74-6.46986 140.291-7.22498 141.024-7.60254 141.937-7.60254 142.826-7.60254 143.551-7.19727 144.112-6.38672L144.112-9.99756ZM144.112-4.54102C144.112-5.19043 143.914-5.71045 143.519-6.10107 143.123-6.4917 142.662-6.68701 142.135-6.68701 141.563-6.68701 141.093-6.4331 140.725-5.92529 140.356-5.41748 140.172-4.70459 140.172-3.78662 140.172-2.79541 140.341-2.04102 140.681-1.52344 141.02-1.00586 141.485-0.74707 142.076-0.74707 142.613-0.74707 143.087-0.97168 143.497-1.4209 143.907-1.87012 144.112-2.39746 144.112-3.00293Z" transform="translate(497.963 386)"/><rect x="254" y="315" width="159" height="22" stroke="#117EA7" stroke-width="2.33333" stroke-linecap="round" stroke-linejoin="round" stroke-miterlimit="10" fill="#1CADE4"/><text fill="#FFFFFF" font-family="Franklin Gothic Book,Franklin Gothic Book_MSFontService,sans-serif" font-weight="400" font-size="15" transform="translate(292.097 331)">All categories<tspan fill="#000000" font-size="15" x="-9.91608" y="-22">Features (X)</tspan><tspan fill="#000000" font-size="15" x="8.39554" y="52">Label (y)</tspan></text><rect x="250" y="386" width="163" height="38" stroke="#117EA7" stroke-width="2.33333" stroke-linecap="round" stroke-linejoin="round" stroke-miterlimit="10" fill="#1CADE4"/><text fill="#FFFFFF" font-family="Franklin Gothic Book,Franklin Gothic Book_MSFontService,sans-serif" font-weight="400" font-size="15" transform="translate(276.981 401)">Desired franchise <tspan font-size="15" x="28.1667" y="18">category</tspan></text><rect x="20" y="351" width="67" height="22" stroke="#117EA7" stroke-width="2.33333" stroke-linecap="round" stroke-linejoin="round" stroke-miterlimit="10" fill="#1CADE4"/><text fill="#FFFFFF" font-family="Franklin Gothic Book,Franklin Gothic Book_MSFontService,sans-serif" font-weight="400" font-size="15" transform="translate(38.8268 367)">Data</text><rect x="466" y="305" width="207" height="118" stroke="#117EA7" stroke-width="2.33333" stroke-linecap="round" stroke-linejoin="round" stroke-miterlimit="10" fill="none"/><g clip-path="url(#clip5)" filter="url(#fx1)" transform="translate(548 313)"><g clip-path="url(#clip6)"><path d="M10.9058 0 9.68994 0 9.68994-8.73047 6.44463 0 5.59502 0 2.31445-8.73047 2.31445 0 1.25244 0 1.25244-9.99756 3.10638-9.99756 6.12671-2.00146 9.07516-9.99756 10.9058-9.99756ZM18.9891-1.09863 18.9891 0 13.0858 0 13.0858-9.99756 14.3675-9.99756 14.3675-1.09863Z" transform="translate(12.4991 22)"/></g></g><path d="M10.9058 0 9.68994 0 9.68994-8.73047 6.44463 0 5.59502 0 2.31445-8.73047 2.31445 0 1.25244 0 1.25244-9.99756 3.10638-9.99756 6.12671-2.00146 9.07516-9.99756 10.9058-9.99756ZM18.9891-1.09863 18.9891 0 13.0858 0 13.0858-9.99756 14.3675-9.99756 14.3675-1.09863Z" transform="translate(559.914 334)"/><rect x="125" y="348" width="102" height="27" stroke="#117EA7" stroke-width="2.33333" stroke-linecap="round" stroke-linejoin="round" stroke-miterlimit="10" fill="#1CADE4"/><text fill="#FFFFFF" font-family="Franklin Gothic Book,Franklin Gothic Book_MSFontService,sans-serif" font-weight="400" font-size="15" transform="translate(144.143 367)">Transform</text><path d="M0.25964-0.614029 27.6307 10.9597C27.9699 11.1031 28.1285 11.4943 27.9851 11.8334 27.8417 12.1725 27.4506 12.3312 27.1115 12.1878L-0.25964 0.614029C-0.598759 0.470634-0.757424 0.0794787-0.614029-0.25964-0.470634-0.598759-0.0794787-0.757424 0.25964-0.614029ZM27.7009 7.37033 33.5114 14.1702 24.5852 14.7387Z" fill="#189CCE" transform="matrix(1 0 0 -1 216.5 345.67)"/><path d="M214.764 380.888 238.422 391.101C238.76 391.247 238.916 391.639 238.77 391.977 238.624 392.315 238.232 392.471 237.894 392.325L214.236 382.112C213.898 381.966 213.742 381.574 213.888 381.236 214.034 380.898 214.426 380.742 214.764 380.888ZM238.519 387.512 244.279 394.355 235.349 394.857Z" fill="#189CCE"/><path d="M413.5 326.833 460.018 326.833C460.386 326.833 460.685 327.132 460.685 327.5 460.685 327.868 460.386 328.167 460.018 328.167L413.5 328.167C413.132 328.167 412.833 327.868 412.833 327.5 412.833 327.132 413.132 326.833 413.5 326.833ZM458.685 323.5 466.685 327.5 458.685 331.5Z" fill="#189CCE"/><path d="M413.5 405.833 460.018 405.833C460.386 405.833 460.685 406.132 460.685 406.5 460.685 406.868 460.386 407.167 460.018 407.167L413.5 407.167C413.132 407.167 412.833 406.868 412.833 406.5 412.833 406.132 413.132 405.833 413.5 405.833ZM458.685 402.5 466.685 406.5 458.685 410.5Z" fill="#189CCE"/><path d="M673.5 325.833 720.018 325.833C720.386 325.833 720.685 326.132 720.685 326.5 720.685 326.868 720.386 327.167 720.018 327.167L673.5 327.167C673.132 327.167 672.833 326.868 672.833 326.5 672.833 326.132 673.132 325.833 673.5 325.833ZM718.685 322.5 726.685 326.5 718.685 330.5Z" fill="#189CCE"/><rect x="726" y="311" width="102" height="27" stroke="#117EA7" stroke-width="2.33333" stroke-linecap="round" stroke-linejoin="round" stroke-miterlimit="10" fill="#1CADE4"/><text fill="#FFFFFF" font-family="Franklin Gothic Book,Franklin Gothic Book_MSFontService,sans-serif" font-weight="400" font-size="15" transform="translate(745.763 330)">Prediction</text><rect x="726" y="380" width="137" height="27" stroke="#117EA7" stroke-width="2.33333" stroke-linecap="round" stroke-linejoin="round" stroke-miterlimit="10" fill="#1CADE4"/><text fill="#FFFFFF" font-family="Franklin Gothic Book,Franklin Gothic Book_MSFontService,sans-serif" font-weight="400" font-size="15" transform="translate(748.853 399)">False positives</text><path d="M778.167 345.5 778.167 365.763C778.167 366.131 777.868 366.43 777.5 366.43 777.132 366.43 776.833 366.131 776.833 365.763L776.833 345.5C776.833 345.132 777.132 344.833 777.5 344.833 777.868 344.833 778.167 345.132 778.167 345.5ZM781.5 364.43 777.5 372.43 773.5 364.43Z" fill="#189CCE"/><text font-family="Franklin Gothic Book,Franklin Gothic Book_MSFontService,sans-serif" font-weight="400" font-size="12" transform="translate(727.838 425)">These are construed as <tspan font-size="12" x="0" y="14">locations that the model </tspan><tspan font-size="12" x="0" y="28">identifies as having a desired </tspan><tspan font-size="12" x="0" y="43">franchise based on the features </tspan><tspan font-size="12" x="0" y="57">although it doesn’t.  </tspan></text><path d="M94.5001 363.833 108.828 363.833C109.196 363.833 109.494 364.132 109.494 364.5 109.494 364.868 109.196 365.167 108.828 365.167L94.5001 365.167C94.1319 365.167 93.8334 364.868 93.8334 364.5 93.8334 364.132 94.1319 363.833 94.5001 363.833ZM107.494 360.5 115.494 364.5 107.494 368.5Z" fill="#189CCE"/></g></svg>